# xmcd
#
# Track frame offsets:
#	150
#	18452
#	33218
#	47521
#	64531
#	79340
#	97225
#	115109
#	133209
#	150209
#	166685
#
# Disc length: 2498 seconds
#
# Revision: 1
# Processed by: cddbd v1.5.2PL0 Copyright (c) Steve Scherf et al.
# Submitted via: audiograbber 1.83.01
#
DISCID=7f09c00b
DTITLE=Colin Amey - Getaway
DYEAR=2006
DGENRE=Country
TTITLE0=Getaway
TTITLE1=Good Enough
TTITLE2=Look at That Truck
TTITLE3=Revolves Around You
TTITLE4=Love Looks Good On You
TTITLE5=That Hurts
TTITLE6=It's a Guy Thing
TTITLE7=Millionaire
TTITLE8=You Don't See That Everyday
TTITLE9=Is It Just Me
TTITLE10=Fortunate Man
EXTD=
EXTT0=
EXTT1=
EXTT2=
EXTT3=
EXTT4=
EXTT5=
EXTT6=
EXTT7=
EXTT8=
EXTT9=
EXTT10=
PLAYORDER=
